<svg xmlns="http://www.w3.org/2000/svg" width="280" height="60" fill="none" viewBox="0 32 320 60"><path fill="#2855AF" fill-rule="evenodd" d="M129.555 56.268c6.777 0 11.676 4.976 11.676 11.089 0 6.033-4.937 11.09-11.755 11.09-6.778 0-11.677-4.977-11.677-11.09 0-6.032 4.938-11.089 11.756-11.089m0 15.868c2.703 0 4.429-2.153 4.429-4.78 0-2.583-1.882-4.778-4.508-4.778-2.703 0-4.427 2.153-4.427 4.779 0 2.588 1.88 4.779 4.506 4.779m22.033-4.844 7.053-10.617h6.857V77.87h-7.21V67.254l-7.052 10.617h-6.856V56.675h7.208zm3.527-11.923c-5.032 0-7.436-2.154-8.026-5.873l5.697-.796c.26 1.403.959 2.285 2.329 2.285s2.069-.882 2.33-2.285l5.696.796c-.589 3.72-2.993 5.873-8.026 5.873m29.765 15.863c2.61 0 4.408-1.124 5.919-3.308l5.716 4.198c-2.735 3.69-6.157 6.26-12.162 6.26-7.982 0-14.071-5.917-14.071-14.285 0-7.802 6.053-14.23 14.423-14.23 5.205 0 8.995 2.28 11.658 6.107l-5.623 4.118c-1.509-2.088-3.307-3.076-5.685-3.076-4.003 0-6.777 3.132-6.777 7.078 0 4.34 2.884 7.138 6.602 7.138m39.938-10.483.051-4.075h18.246v21.197h-7.444V62.589h-4.284l-.005.659c-.217 12.839-3.076 14.897-7.583 14.897-.699 0-2.111-.136-3.038-.274h-8.853l-5.831-9.045v9.045h-7.446V56.674h7.446v8.154l5.679-8.154h8.583l-7.569 9.636 7.749 11.307.353-6.522c.824.118 1.02.118 1.216.118 1.332 0 2.701-.97 2.73-10.464m37.16-1.49v-2.587h7.445v21.196h-7.445v-2.82c-1.449 1.763-3.251 3.291-6.426 3.291-5.053 0-9.403-4.195-9.403-11.05 0-6.895 4.35-11.087 9.365-11.087 3.213 0 5.094 1.449 6.464 3.057m-4.152 12.85c2.389 0 4.309-2 4.309-4.858 0-2.82-1.92-4.82-4.309-4.82-2.43 0-4.35 1.957-4.35 4.896 0 2.782 1.92 4.782 4.35 4.782m29.461-.233V62.59h-4.189v.354c-.08 3.762-.705 6.464-1.449 8.933zm7.484 0h2.785l-.162 10.305h-6.891v-4.31h-11.286l-.109 4.31h-6.943V71.876h2.415c1.214-3.487 1.787-6.856 1.787-14.184v-1.017h18.404zm-188.639-21.54h4.899l5.275 27.535h-7.331l-2.582-13.456-6.704 14.368v.004h-.797v-.004l-6.81-14.298-2.487 13.386h-7.293l5.275-27.536h4.873s4.207 9.118 5.047 10.86c.839 1.74 1.794 3.98 1.794 3.98s1.253-2.886 1.857-4.114c.604-1.23 4.984-10.726 4.984-10.726" clip-rule="evenodd"/><path fill="#64CDFF" fill-rule="evenodd" d="M24.825 78.946c11.224 0 20.111-26.872 25.582-35.495 3.503-5.522 7.036-3.873 10.175-.16 5.51 6.519 9.678 18.068 9.512 25.21-.146 6.226-3.473 10.445-9.03 10.445z" clip-rule="evenodd"/><path fill="#2855AF" fill-rule="evenodd" d="m40.522 63.055.073-.139q.164-.309.326-.619.29-.554.58-1.114c-2.584-5.215-4.56-10.276-6.42-13.085-3.178-4.799-6.458-3.424-9.292-.186C21.009 53.373 18 61.407 18 69.882c0 5.436 2.517 9.063 6.825 9.063 5.94 0 11.225-7.526 15.697-15.89" clip-rule="evenodd"/></svg>