<svg xmlns="http://www.w3.org/2000/svg" xml:space="preserve" fill="#fff" viewBox="0 0 1180 320"><path d="M444.7 68.2c-47.3 0-86.1 38.7-86.1 86.1s38.7 86.1 86.1 86.1 86.1-38.5 86.1-86.1-38.6-86.1-86.1-86.1m0 141.3c-29.4 0-53.1-24.1-53.1-55.2S415.3 99 444.7 99s53.1 24.1 53.1 55.2-23.7 55.3-53.1 55.3M617.7 116c-15.5 0-30.6 6.2-38.5 16.7v-14.3h-31.1v167.3h31.1v-60.5c7.9 9.8 22.5 15.1 38.5 15.1 33.5 0 59.8-26.3 59.8-62.2S651.2 116 617.7 116m-5.2 97.3c-17.7 0-33.5-13.9-33.5-35.1s15.8-35.1 33.5-35.1S646 157 646 178.2s-15.8 35.1-33.5 35.1M750.6 116c-33.9 0-60.7 26.5-60.7 62.2s23.4 62.2 61.7 62.2c31.3 0 51.4-18.9 57.6-40.2h-30.4c-3.8 8.8-14.6 15.1-27.5 15.1-16 0-28.2-11.2-31.1-27.3h90.4v-12.2c0-32.6-22.7-59.8-60-59.8m-30.1 49.9c3.3-15.1 15.8-24.9 30.8-24.9 16 0 28.2 10.5 29.6 24.9zM893.3 116c-13.9 0-28.4 6.2-35.1 16.5v-14.1h-31.1v119.5h31.1v-64.3c0-18.6 10-30.8 26.3-30.8 15.1 0 23.2 11.5 23.2 27.5v67.6h31.1v-72.7c0-29.6-18.2-49.2-45.5-49.2M1018.3 70.6l-67.6 167.3h33.2l14.3-36.6h77l14.3 36.6h33.7L1056 70.6zm-9.3 103 27.7-70 27.5 70zM1167.5 70.6H1136v167.3h31.6V70.6zM123.2 118.3V85c0-2.2.6-3.8 2.9-5.1L187.9 44c8.3-4.8 18.9-7 29.2-7 39.1 0 63.8 30.1 63.8 62.5 0 2.6 0 6.1-.6 9l-64.7-37.8c-3.2-1.9-6.7-2.2-10.6 0zm142.9 118.3v-74c0-4.2-1.6-7-5.4-9.3l-82-47.7 28.8-16.7c1.6-1 4.2-1 5.8 0l62.2 35.9c17.6 10.3 29.8 32.7 29.8 54.1-.1 25.3-15.5 48.7-39.2 57.7m-159.9-63.8-28.5-17c-2.2-1.3-2.9-2.9-2.9-5.1V79.3c0-34.9 26.6-61.2 62.8-61.2 14.1 0 27.6 4.8 38.4 13.5L111.7 69c-3.8 2.2-5.4 5.1-5.4 9.3v94.5zm55.8 32.1-38.8-21.8V137l38.8-21.8 38.4 21.8v46.1zm24 97c-14.1 0-27.6-4.8-38.4-13.5L212 251c3.8-2.2 5.4-5.1 5.4-9.3v-94.5l28.8 17c2.2 1.3 2.9 2.9 2.9 5.1v71.5c0 34.9-26.9 61.1-63.1 61.1m-75.6-70.8-62.2-35.9c-17.6-10.3-29.8-32.7-29.8-54.1 0-25.6 15.7-48.7 39.4-57.7v74.3c0 4.2 1.6 7 5.4 9.3l81.7 47.4-28.8 16.7c-1.5 1-4.1 1-5.7 0m-3.9 51.9c-36.8 0-63.8-27.6-63.8-61.8 0-3.2.3-6.4.6-9.3l64.4 37.2c3.8 2.2 7 2.2 10.9 0l81.7-47.4V235c0 2.2-.6 3.8-2.9 5.1L135.7 276c-8.3 4.8-18.9 7-29.2 7m79.5 36.2c38.4 0 70.5-27.6 77.5-64.1 35.9-9 59-42.3 59-76.3 0-22.4-9.6-43.9-27.2-59.6 1.6-6.7 2.9-13.8 2.9-20.5 0-45.2-36.8-79.1-79.1-79.1-8.7 0-17.3 1.6-25.6 4.5C179 9.7 159.4.8 137.6.8 99.2.8 67.1 28.4 60.1 64.9c-35.9 9-59 42.3-59 76.3 0 22.4 9.6 43.9 27.2 59.6-1.6 6.7-2.9 13.8-2.9 20.5 0 45.2 36.8 79.1 79.1 79.1 8.7 0 17.3-1.6 25.6-4.5 14.6 14.4 34.1 23.3 55.9 23.3"/></svg>