<svg xmlns="http://www.w3.org/2000/svg" xml:space="preserve" width="489.76" height="238.858"><defs><clipPath id="a" clipPathUnits="userSpaceOnUse"><path d="M0 0h595.276v595.276H0Z"/></clipPath></defs><g clip-path="url(#a)" transform="matrix(7.7903 0 0 -7.7903 -2058.096 4085.304)"><path d="M0 0c-1.215.081-2.616.294-3.721.614-.207.06-1.064.375-1.282.475-3.847 1.782-6.527 5.672-6.527 10.185 0 6.19 5.036 11.232 11.23 11.232 6.139 0 11.141-4.956 11.227-11.076h4.057C14.898 19.786 8.077 26.558-.3 26.558c-8.427 0-15.286-6.855-15.286-15.284 0-5.811 3.268-10.865 8.053-13.447A18.6 18.6 0 0 1-5.008-3.23c1.364-.406 3.038-.676 4.528-.789.506-.038 2.273-.058 2.788-.06h27.938v4.041H2.355C1.984-.038.363-.024 0 0m2.355 6.345c-.295 0-1.838.01-2.123.034-.483.041-1.183.113-1.633.216-.508.136-.985.316-1.2.434a4.82 4.82 0 0 0-2.534 4.245A4.835 4.835 0 0 0-.3 16.111a4.835 4.835 0 0 0 4.828-4.681h3.898c-.082 4.75-3.954 8.578-8.726 8.578a8.735 8.735 0 0 1-8.736-8.734c0-3.402 1.95-6.34 4.79-7.779.437-.256 1.259-.524 1.493-.585.802-.211 1.879-.355 2.753-.419.323-.027 1.905-.039 2.239-.041v-.006h28.006v3.901ZM-18.086-4.064h-4.084v26.561h-5.968v4.085h10.052zm-14.536 24.52v-3.928h4.484V-4.064h3.924v24.52z" style="fill:#d91920;fill-opacity:1;fill-rule:nonzero;stroke:none" transform="translate(296.81 497.828)"/><path d="M0 0c-1.471 0-2.691-1.173-2.691-2.645A2.71 2.71 0 0 1 0-5.337a2.68 2.68 0 0 1 2.689 2.692C2.689-1.173 1.516 0 0 0m0-4.903a2.246 2.246 0 0 0-2.262 2.258C-2.262-1.408-1.215-.429 0-.429c1.214 0 2.256-.979 2.256-2.216A2.24 2.24 0 0 0 0-4.903" style="fill:#d91920;fill-opacity:1;fill-rule:nonzero;stroke:none" transform="translate(319.839 524.124)"/><path d="M0 0c0 .297-.044.573-.384.682.426.148.468.427.468.596 0 .683-.62.77-.875.77h-1.173V-.597h.489V.488h.385c.554 0 .6-.255.6-.488 0-.451 0-.536.106-.597h.49C0-.49.042-.407 0 0m-.898.874h-.577v.833h.494c.342 0 .574-.108.574-.429 0-.169-.083-.404-.491-.404" style="fill:#d91920;fill-opacity:1;fill-rule:nonzero;stroke:none" transform="translate(320.863 520.755)"/></g></svg>